<svg xmlns="http://www.w3.org/2000/svg" xmlns:xlink="http://www.w3.org/1999/xlink" xmlns:inkscape="http://www.inkscape.org/namespaces/inkscape" version="1.1" width="375" height="375" viewBox="0 0 375 375">
<defs>
<clipPath id="clip_0">
<path transform="matrix(.24,0,0,.24,0,0)" d="M0 0H1562.5V1562.5H0Z" clip-rule="evenodd"/>
</clipPath>
<clipPath id="clip_1">
<path transform="matrix(.24,0,0,.24,0,0)" d="M0 0H1562.5V1562.5H0Z" clip-rule="evenodd"/>
</clipPath>
<clipPath id="clip_2">
<path transform="matrix(.24,0,0,.24,0,0)" d="M468.75 394.48347H1093.75V1010.10848H468.75Z" clip-rule="evenodd"/>
</clipPath>
<clipPath id="clip_3">
<path transform="matrix(.24,0,0,.24,0,0)" d="M0 0H1562.5V1562.5H0Z" clip-rule="evenodd"/>
</clipPath>
</defs>
<g clip-path="url(#clip_0)">
<path transform="matrix(.75,0,0,.75,0,0)" d="M0 0H500V500H0Z" fill="#ffffff"/>
</g>
<g clip-path="url(#clip_1)">
<path transform="matrix(.75,0,0,.75,0,0)" d="M0 0H500V500H0Z" fill="#141414"/>
</g>
<g clip-path="url(#clip_2)">
<path transform="matrix(.40738727,0,0,.40738727,95.10456,76.07049)" d="M141.5 147.8C142.6 147.8 143.5 148.7 143.5 149.8 143.5 150.90001 142.6 151.8 141.5 151.8 140.4 151.8 139.5 150.90001 139.5 149.8 139.5 148.7 140.4 147.8 141.5 147.8ZM261 144.8C260.3 144.8 259.8 145.3 259.8 146 259.8 146.7 260.3 147.2 261 147.2 261.7 147.2 262.2 146.7 262.2 146 262.2 145.3 261.7 144.8 261 144.8ZM257.4 145C256.5 145 255.9 145.7 255.9 146.6 255.9 147.50002 256.6 148.1 257.5 148.1 258.4 148.1 259 147.40001 259 146.5 258.9 145.6 258.2 145 257.4 145ZM253 145.5C252.1 145.5 251.5 146.2 251.5 147.1 251.5 148.00002 252.2 148.6 253.1 148.6 254.00002 148.6 254.6 147.90001 254.6 147 254.6 146.2 253.90001 145.5 253 145.5ZM248 145.9C247 145.9 246.3 146.7 246.3 147.59999 246.3 148.59999 247.1 149.29999 248 149.29999 249 149.29999 249.7 148.49999 249.7 147.59999 249.7 146.7 248.9 145.9 248 145.9ZM242.6 146.29999C241.6 146.29999 240.90001 147.09999 240.90001 147.99999 240.90001 148.99999 241.70001 149.69998 242.6 149.69998 243.6 149.69998 244.3 148.89998 244.3 147.99999 244.3 147.09999 243.6 146.29999 242.6 146.29999ZM236.5 146.69998C235.4 146.69998 234.6 147.59998 234.6 148.59998 234.6 149.69998 235.5 150.49997 236.5 150.49997 237.6 150.49997 238.4 149.59998 238.4 148.59998 238.4 147.49997 237.5 146.59998 236.5 146.69998ZM230 146.69998C229 146.69998 228.1 147.59998 228.1 148.59998 228.1 149.59998 229 150.49997 230 150.49997 231 150.49997 231.9 149.59998 231.9 148.59998 231.9 147.59998 231.09999 146.69998 230 146.69998ZM192.7 144.99999C193.4 144.99999 193.9 145.49999 193.9 146.19998 193.9 146.89998 193.4 147.39998 192.7 147.39998 192 147.39998 191.5 146.89998 191.5 146.19998 191.5 145.59998 192.1 144.99999 192.7 144.99999ZM196.4 145.19998C197.29999 145.19998 198 145.89998 198 146.79999 198 147.7 197.3 148.4 196.4 148.4 195.49999 148.4 194.79999 147.7 194.79999 146.79999 194.79999 145.89998 195.49999 145.19998 196.4 145.19998ZM200.7 145.69998C201.59999 145.69998 202.3 146.39998 202.3 147.29999 202.3 148.2 201.6 148.9 200.7 148.9 199.79999 148.9 199.09999 148.2 199.09999 147.29999 199.2 146.4 199.9 145.69998 200.7 145.69998ZM205.8 145.99999C206.8 145.99999 207.5 146.79999 207.5 147.69998 207.5 148.69998 206.7 149.39998 205.8 149.39998 204.90001 149.39998 204.1 148.59998 204.1 147.69998 204 146.79999 204.8 145.99999 205.8 145.99999ZM211.2 146.39998C212.2 146.39998 212.9 147.19998 212.9 148.09998 212.9 149.09998 212.09999 149.79998 211.2 149.79998 210.2 149.79998 209.5 148.99997 209.5 148.09998 209.4 147.19998 210.2 146.39998 211.2 146.39998ZM217.3 146.69998C218.40001 146.69998 219.2 147.59998 219.2 148.59998 219.2 149.69998 218.3 150.49997 217.3 150.49997 216.3 150.49997 215.40001 149.59998 215.40001 148.59998 215.40001 147.49997 216.20001 146.69998 217.3 146.69998ZM223.7 146.69998C224.7 146.69998 225.59999 147.49999 225.59999 148.59998 225.59999 149.59998 224.79999 150.49997 223.7 150.49997 222.7 150.49997 221.8 149.69997 221.8 148.59998 221.90001 147.49997 222.7 146.69998 223.7 146.69998ZM223.8 296.39997C219.5 292.89997 215.1 290.99998 210.40001 291.89997 206.90001 292.69996 204.50002 295.69996 202.70001 300.39997 198.1 310.09999 193.50002 316.79997 188.90001 319.19996 203.3 317.89997 213.40001 316.09996 217.1 313.39997 215.90001 319.09999 215.90001 324.79997 218 330.39997 219.6 336.39997 223 338.49998 222.9 348.49998 224.29999 339.89997 227 338.99998 230.09999 333.49998 235.29999 325.29997 235.7 318.99998 233.79999 310.99998 237.09999 315.39997 243.9 317.69999 251.09999 318.09999 255.49999 318.3 260.5 319.3 265.19999 319.89997 260.69999 316.59999 257.4 313.39997 254.29999 308.09999 252.09999 303.69999 250.29999 298.39997 246.9 294.89997 245.2 292.39997 241.5 290.89997 236.9 292.89997 233.4 293.89997 231.4 295.49998 229.5 297.19996 236.8 297.19996 240.7 300.69996 242.8 306.09996 238.6 300.89994 233.8 298.09996 228.1 299.39994 230.90001 309.39994 229.20001 316.89994 224.90001 322.99995 227.90001 314.29994 229.00002 306.09996 225.20001 298.99995 218.30002 298.19996 214.20001 301.69996 210.6 305.79994 213 300.19993 216.3 296.79994 223.8 296.39994V296.39997ZM185.9 126.69997C188.79999 137.69997 193.2 135.89997 198.09999 123.99997 199.7 123.29997 201.29999 122.29997 202.29999 120.29997 203.09999 118.89997 203.29999 117.599979 203.09999 116.199977 202.99999 115.49998 202.79999 115.199977 201.9 115.099979 202.2 112.89998 201.7 111.199977 200.4 110.099979 198.29999 111.39998 197.09999 113.39998 196.9 116.199977 196.09999 116.099979 195.59999 116.699977 195.29999 117.79997 194.99999 119.29997 195.19998 120.699977 195.79999 122.199977 196.4 123.099979 197.09999 123.79997 198.19998 123.99998 203.99999 140.09998 210.59998 135.89998 216.09998 123.099979 212.99997 121.89998 211.29998 119.79997 210.89998 116.89998 210.49999 114.69998 211.79998 113.29998 213.29998 113.79998 213.29998 109.59998 214.59998 107.99998 217.19997 108.09998 220.19997 108.29998 220.79998 110.29998 220.09996 113.39999 222.09996 112.999988 222.99996 114.09998 222.49996 116.69999 221.49996 119.39999 219.39995 121.59999 216.19995 122.99999 220.49996 136 231.19995 139.59999 237.59995 123.09999 240.69995 121.899997 242.49994 119.79999 242.89995 116.899997 243.29994 114.7 241.99996 113.299999 240.49996 113.799999 240.49996 109.6 239.19995 107.99999 236.59996 108.1 233.69997 108.299999 232.99996 110.299999 233.69997 113.4 231.69997 113 230.79998 114.1 231.29998 116.700008 232.29998 119.50001 234.39998 121.600009 237.69997 123.100009 244.29998 137 249.79998 139 255.69997 124.50001 260.39997 135.90001 265.49998 137.8 267.79997 126.90001 266.29997 124.00001 265.19996 121.50001 265.49998 119.100009 265.29997 117.8 265.39997 116.90001 265.49998 115.700008 266.49998 116.700008 266.79997 118.00001 267.09999 119.100009 268.39997 122.40001 268.69999 124.40001 267.8 126.90001 268.09999 129.70001 267.59999 133.3 266.5 137.3 266.3 137.2 266.1 137 265.8 137 264.5 137.3 264.09999 138.4 264 139.7 263.2 139.59999 262.8 140 262.9 140.8 263.1 142 263.5 142.8 264.5 143.40001V143.50002C239.4 147.20001 214.1 147.60002 188.5 143.70001V143.6C189.8 143 190.7 142.20001 190.8 140.70001 190.8 139.80002 190.90001 139.20001 189.7 139.40001 189.5 137.8 188.9 137.00002 187.7 136.90001 187.4 137.1 187.09999 137.3 186.9 137.50002 186.29999 134.10002 186 130.60002 185.9 126.70001L185.79999 126.90001C184.99999 124.600009 185.29999 122.70001 186.59999 119.600009 186.99999 118.50001 187.29999 117.3 188.2 116.40001 188.3 117.600009 188.3 118.40001 188.09999 119.600009 188.29999 121.8 187.29999 124.100009 185.9 126.700008V126.69997ZM187 119.99997H187.4V119.09997C187.4 118.99997 187.09999 119.799968 187 119.99997ZM198.1 115.39997 200.5 115.199977 199.9 112.199977 198.09999 115.39997H198.1ZM218.8 113.49997 216.90001 109.79997 214.6 113.79997 218.8 113.49997ZM235 113.49997 239.2 113.79997 236.9 109.79997 235 113.49997ZM257 116.09997C256.8 113.299968 255.6 111.299968 253.5 109.99997 252.2 111.09997 251.6 112.79997 252 114.99997 251 115.09997 250.9 115.39997 250.8 116.09997 250.6 117.39997 250.8 118.799968 251.6 120.19997 252.6 122.19997 254.20001 123.19997 255.8 123.89996 256.9 123.69997 257.6 122.99996 258.2 122.09996 258.80003 120.69996 259 119.19996 258.7 117.69996 258.30003 116.59996 257.7 115.99996 257 116.09996V116.09997ZM255.7 115.299968 253.9 112.09997 253.29999 115.09997 255.69998 115.299968H255.7ZM266.8 119.59997C266.69999 119.49997 266.3 118.59997 266.3 118.59997V119.59997H266.8ZM262.9 147.59998C261.9 149.99997 260.8 152.49997 259.6 155.09998 238.8 160.19998 216.90001 160.59998 193.70001 155.09998 192.20001 152.49997 191.00002 149.99997 190.00002 147.69998 214.70001 152.19998 238.90003 151.59998 262.90003 147.59998H262.9ZM204.5 139.69998C203.7 139.69998 203.3 140.09998 203.5 140.89998 203.8 142.29998 204.4 143.09998 205.9 143.69998 207.29999 143.19998 208.29999 142.59998 208.59999 141.19998 208.7 140.29999 208.9 139.69998 207.7 139.69998 207.7 138.09998 207.2 137.19998 206.09999 136.89998 204.79999 137.29998 204.49999 138.39998 204.49999 139.69998H204.5ZM205.7 138.79999C205.5 138.79999 205.4 138.9 205.4 139.09999 205.5 139.49999 205.7 139.7 206 139.9 206.4 139.79999 206.6 139.59999 206.7 139.2 206.7 139 206.8 138.8 206.5 138.8 206.5 138.40001 206.4 138.1 206.1 138.1 205.8 138.20001 205.70001 138.5 205.70001 138.8L205.7 138.79999ZM225.2 139.9C224.4 139.9 223.9 140.4 224.09999 141.2 224.49999 142.7 225.09999 143.59999 226.79999 144.3 228.29999 143.8 229.49999 143.1 229.79999 141.5 229.9 140.5 230.09999 139.8 228.79999 139.9 228.9 138.2 228.29999 137.09999 226.99999 136.79999 225.49999 137.19998 225.19998 138.4 225.19998 139.9H225.2ZM226.4 138.9C226.2 138.9 226 139 226.09999 139.29999 226.2 139.69998 226.4 139.99999 226.79999 140.09999 227.19998 139.99999 227.49999 139.79999 227.59999 139.29999 227.59999 138.99999 227.7 138.9 227.29999 138.9 227.29999 138.4 227.19998 138.09999 226.79999 138.09999 226.49999 138.2 226.4 138.59999 226.4 138.9ZM245.9 139.4C245.09999 139.4 244.7 139.79999 244.9 140.59999 245.2 141.99999 245.79999 142.79999 247.29999 143.4 248.69998 142.9 249.69998 142.29999 249.99999 140.9 250.09999 140 250.29999 139.4 249.09999 139.4 249.09999 137.79999 248.59999 136.9 247.49999 136.59999 246.19998 137.09999 245.89998 138.2 245.89998 139.4H245.9ZM247 138.59999C246.8 138.59999 246.7 138.7 246.7 138.9 246.8 139.29999 247 139.5 247.3 139.7 247.7 139.59999 247.90001 139.4 248 139 248 138.8 248.1 138.6 247.8 138.6 247.8 138.20001 247.7 137.90001 247.40001 137.90001 247.1 138.00002 247.00002 138.3 247.00002 138.6L247 138.59999ZM266.1 138.79999C266.1 138.59999 265.9 138.4 265.7 138.29999 265.30003 138.4 265.2 138.69998 265.2 138.99999 265 138.99999 264.90003 139.09999 264.90003 139.29999 265.00004 139.69998 265.10005 139.9 265.50004 140.09999H265.70005C265.80006 139.59999 266.00004 139.2 266.10005 138.79999H266.1ZM187.6 138.9C187.40001 138.9 187.3 139.09999 187.40001 139.2 187.50002 139.59999 187.70001 139.7 188.1 139.9 188.40001 139.7 188.70001 139.5 188.70001 139.09999 188.70001 138.79999 188.70001 138.7 188.40001 138.7 188.40001 138.3 188.20001 138 187.90001 138 187.6 138.3 187.50002 138.6 187.6 138.9ZM141.5 305.7C142.6 305.7 143.5 304.80003 143.5 303.7 143.5 302.6 142.6 301.7 141.5 301.7 140.4 301.7 139.5 302.6 139.5 303.7 139.6 304.80003 140.4 305.7 141.5 305.7ZM312.1 305.7C311 305.7 310.1 304.80003 310.1 303.7 310.1 302.6 311 301.7 312.1 301.7 313.2 301.7 314.1 302.6 314.1 303.7 314.1 304.80003 313.2 305.7 312.1 305.7ZM410.90003 403.90003C386.10005 406.10005 369.00004 395.7 352.30003 374.10005L321.00004 331.60005C312.10005 320.50004 301.50004 309.70005 288.00004 302.30006 299.30003 310.20005 313.10005 319.20005 317.30003 340.40007 319.7 359.30006 311.1 377.10008 298.80003 382.30006 290.1 386.70005 275.50004 385.10005 265.90003 378.00007 282.80003 387.40007 301.2 380.40007 307.2 370.90007 316.90003 355.90007 315.7 336.20005 308.5 326.20005 307.8 325.10005 307 324.10005 306.2 323.00004 318.2 348.60005 305.7 377.50004 274.6 376.10005 274.7 374.40003 276.7 371.50004 279.30003 370.20005 284.1 367.30006 289.1 364.80006 293.7 361.40007 300.6 356.60008 305.7 350.60008 307.30003 342.20005 308.1 335.60005 306.7 328.30006 304.00004 320.40007 301.70005 317.60008 299.20005 315.00007 296.50004 312.60008 298.70005 315.70008 300.00004 321.70008 299.60005 325.10008 297.60005 333.90007 293.80006 335.40007 290.60005 336.40007 286.50004 337.60008 283.20005 336.70005 280.60005 334.00007 277.80006 330.90007 278.00004 326.50007 280.50004 324.30006 284.00004 321.80006 287.40003 321.50007 290.40003 324.20005 285.30003 323.20005 281.40003 323.80006 280.30003 328.40007 280.2 331.60008 282.1 333.70005 285.1 335.00007 290.4 335.60008 293.80003 333.60008 296.1 330.30006 299 326.10005 298.2 320.20005 296.30003 316.50007 294.7 313.20008 292.30003 310.60008 289.90003 308.60008 268.2 295.70008 253.20003 290.00007 226.90003 287.90007 200.60002 290.00007 185.60002 295.70005 163.90003 308.60008 161.40003 310.60008 159.00003 313.20008 157.50003 316.50007 155.60004 320.20008 154.90003 326.10008 157.70003 330.30006 160.00003 333.60005 163.40003 335.60005 168.70003 335.00007 171.70003 333.70008 173.60002 331.60008 173.50003 328.40007 172.40003 323.90007 168.50003 323.20005 163.40003 324.20005 166.50003 321.50004 169.80002 321.80006 173.30002 324.30006 175.70001 326.40007 176.00002 330.80006 173.20001 334.00007 170.6 336.70008 167.30002 337.60008 163.20001 336.40007 160.00002 335.50007 156.20001 333.90007 154.20001 325.10008 153.70001 321.70008 155.1 315.70008 157.30002 312.60008 154.60002 315.10008 152.10002 317.70008 149.80002 320.40007 147.10002 328.30006 145.70001 335.60008 146.50002 342.20005 148.20001 350.60005 153.30002 356.60005 160.10002 361.40007 164.80002 364.80006 169.70003 367.30006 174.50002 370.20005 177.10002 371.60005 179.10002 374.40007 179.20001 376.10005 148.1 377.50004 135.6 348.60005 147.6 323.00004 146.8 324.00004 146 325.10005 145.3 326.20005 138.1 336.20005 136.90001 355.90007 146.6 370.90007 152.5 380.30006 171 387.30006 187.90001 378.00007 178.3 385.10008 163.70001 386.70008 155 382.30006 142.6 377.10005 134.1 359.30006 136.5 340.40007 140.6 319.30006 154.5 310.20005 165.8 302.30006 152.3 309.70005 141.7 320.50007 132.8 331.60005L101.4 374.20005C84.8 395.80006 67.600009 406.20005 42.800004 404.00004 54.600004 403.40003 65.5 400.00004 75.200008 392.80003 86.4 384.80003 96.200008 374.7 105.100009 363.00004 114.200008 352.20005 120.600009 340.30003 129.5 330.20005 126.1 331.90007 119.9 332.40007 116.5 331.40007 108 328.10008 107 324.10008 106.5 320.70005 105.9 316.50004 107.3 313.30006 110.4 311.10005 114 308.70005 118.3 309.60005 120.1 312.40003 122.1 316.30003 121.9 319.7 118.799999 322.30003 120.6 317.40003 120.49999 313.30003 116.1 311.6 112.9 311.1 110.6 312.6 108.799999 315.5 107.399997 320.8 108.899997 324.4 111.899997 327.2 115.59999 330.7 121.7 330.80003 125.7 329.5 129.2 328.4 132.2 326.4 134.5 324.2 152.1 301.90003 177.3 291.5 191.9 288.80003 173 291.40003 154.59999 297.90003 136.9 312.30003 142.7 305.2 151.29999 299.30003 161.9 294.90003 161.7 294.90003 161.5 295.00004 161.4 295.00004 159.9 295.00004 158.7 293.80003 158.7 292.30003 158.7 290.80003 159.9 289.6 161.4 289.6 162.9 289.6 164.09999 290.80003 164.09999 292.30003 164.09999 293.30003 163.59999 294.1 162.9 294.6 164.29999 294 165.7 293.5 167.2 293H166.8C165.2 293 163.90001 291.7 163.90001 290.1 163.90001 288.5 165.20001 287.2 166.8 287.2 168.4 287.2 169.7 288.5 169.7 290.1 169.7 291.2 169.09999 292.1 168.2 292.6 184.5 287.1 204.79999 285 227.2 287.30003 249.59999 285.00004 269.9 287.1 286.2 292.6 285.30003 292.1 284.7 291.2 284.7 290.1 284.7 288.5 286 287.2 287.6 287.2 289.2 287.2 290.5 288.5 290.5 290.1 290.5 291.7 289.2 293 287.6 293H287.2C288.7 293.5 290.1 294 291.5 294.6 290.8 294.1 290.3 293.30003 290.3 292.30003 290.3 290.80003 291.5 289.6 293 289.6 294.5 289.6 295.7 290.80003 295.7 292.30003 295.7 293.80003 294.5 295.00004 293 295.00004 292.8 295.00004 292.6 295.00004 292.5 294.90003 303.1 299.30003 311.6 305.2 317.5 312.30003 299.8 297.90003 281.3 291.40003 262.5 288.80003 277 291.50004 302.3 301.90003 319.9 324.2 322.19999 326.40003 325.19999 328.40003 328.69999 329.5 332.69999 330.9 338.69999 330.7 342.49998 327.2 345.49998 324.40003 346.99998 320.80003 345.59999 315.5 343.8 312.7 341.49998 311.1 338.3 311.6 333.9 313.4 333.9 317.4 335.59999 322.30003 332.39997 319.6 332.3 316.30003 334.3 312.40003 336.09999 309.7 340.4 308.80003 344 311.10005 347.1 313.30006 348.4 316.50004 347.9 320.70005 347.4 324.00004 346.5 328.10005 337.9 331.40007 334.5 332.40007 328.4 331.90007 324.9 330.20005 333.8 340.30006 340.1 352.20005 349.3 363.00004 358.19999 374.60005 368 384.80003 379.19999 392.80003 388.19999 399.90003 399.09999 403.30003 410.9 403.90003H410.90003ZM318.60005 342.60005C319.60005 353.40003 318.50004 363.20005 313.80006 371.40003 309.20005 378.30003 303.70005 383.80003 296.10005 388.50004 292.90003 390.20005 296.20005 392.10005 298.70005 391.20005 307.40007 386.80006 311.80006 379.90007 315.50004 372.50004 320.80003 362.60005 320.40003 348.90003 318.60005 342.60005ZM327.60005 350.90003C333.60005 371.2 342.90003 388.80003 355.40003 404.00004 357.80003 407.60005 364.90003 405.70005 359.90003 399.60005 341.7 383.10005 332.7 366.40003 327.60005 350.90003ZM386.40003 304.60005C384.40003 314.90003 381.80003 325.10005 373.2 331.40003 361.7 343.40003 338.30003 339.10005 333.7 334.7 339.7 342.6 365.30003 345.40003 376.90003 335.30003 387.40003 328.2 389.10005 317.6 386.40003 304.6V304.60005ZM298.90003 317.10005C301.00004 322.30006 301.10005 327.50004 297.30003 332.60005 293.7 336.40003 291.90003 340.10005 293.90003 343.30006 295.40003 344.80006 297.80003 344.20005 298.90003 341.60005 299.2 340.70005 298.00004 340.00004 297.50004 340.80006 295.70005 344.30006 293.90003 341.30006 295.40003 339.60005 307.60005 329.20005 304.90003 322.70005 298.90003 317.10005ZM329.50004 332.10005C336.00004 337.20005 342.80003 338.80006 351.10005 325.10005 352.50004 323.30006 355.80006 324.60005 352.60005 326.90003 351.90003 327.60005 352.90003 328.60005 353.70005 328.2 356.10005 326.7 356.30006 324.2 354.60005 323 351.10005 321.5 347.80006 323.8 344.60005 328 340.10005 332.6 335.00004 333.3 329.50004 332.1V332.10005ZM325.40003 372.90003C325.80003 369.00004 326.50004 364.50004 326.40003 359.50004 325.50004 350.20005 323.60005 343.90003 321.10005 338.90003 323.00004 345.7 323.60005 352.7 323.40003 359.2 323.50004 363.7 322.2 371.30003 325.40003 372.90003ZM365.2 359.10005C353.6 354.60005 343.5 348.50004 334.7 340.70005 338 345.80006 341.90003 350.40007 347.80003 353.50004 353.1 356.60005 358.90003 358.40003 365.2 359.10005ZM386.30003 365.70005C382.90003 360.20005 373.2 354.40007 366.50004 359.60005 369.30003 367.20005 377.50004 368.40003 386.30003 365.70005ZM328.30003 389.90007C331.1 385.70005 331.90003 376.30006 326.00004 373.50007 321.40003 378.10008 323.10005 384.60008 328.30003 389.90007ZM253.20001 286.60005C254.20001 286.60005 255.00002 285.80006 255.00002 284.80006 255.00002 283.80006 254.20001 283.00007 253.20001 283.00007 252.20001 283.00007 251.40001 283.80006 251.40001 284.80006 251.40001 285.80006 252.20001 286.60005 253.20001 286.60005ZM259.90003 286.90003C261.00004 286.90003 261.90003 286.00004 261.90003 284.90003 261.90003 283.80003 261.00004 282.90003 259.90003 282.90003 258.80003 282.90003 257.90003 283.80003 257.90003 284.90003 257.80003 286.00004 258.7 286.90003 259.90003 286.90003ZM266.80003 287.7C268.1 287.7 269.2 286.6 269.2 285.30003 269.2 284.00004 268.1 282.90003 266.80003 282.90003 265.50004 282.90003 264.40003 284.00004 264.40003 285.30003 264.40003 286.7 265.50004 287.7 266.80003 287.7ZM273.7 288.80003C275.1 288.80003 276.30003 287.6 276.30003 286.2 276.30003 284.80003 275.1 283.6 273.7 283.6 272.30003 283.6 271.1 284.80003 271.1 286.2 271.1 287.6 272.30003 288.80003 273.7 288.80003ZM280.40003 290.40003C281.90003 290.40003 283.10005 289.2 283.10005 287.7 283.10005 286.2 281.90003 285 280.40003 285 278.90003 285 277.7 286.2 277.7 287.7 277.7 289.2 278.90003 290.40003 280.40003 290.40003ZM297.7 297.2C299.1 297.2 300.30003 296 300.30003 294.6 300.30003 293.2 299.1 292 297.7 292 296.30003 292 295.1 293.2 295.1 294.6 295.1 296 296.30003 297.2 297.7 297.2ZM302.80003 299.6C304.1 299.6 305.1 298.6 305.1 297.30003 305.1 296.00004 304.1 295.00004 302.80003 295.00004 301.50004 295.00004 300.50004 296.00004 300.50004 297.30003 300.50004 298.50004 301.50004 299.6 302.80003 299.6ZM307.6 302.30003C308.80003 302.30003 309.7 301.40003 309.7 300.2 309.7 299 308.80003 298.1 307.6 298.1 306.4 298.1 305.5 299 305.5 300.2 305.5 301.40003 306.4 302.30003 307.6 302.30003ZM135 342.6C133.2 348.80003 132.8 362.6 138.1 372.5 141.70001 379.9 146.20001 386.8 154.90001 391.2 157.50002 392.1 160.70001 390.2 157.50002 388.5 149.90001 383.8 144.40001 378.2 139.80002 371.4 135.20001 363.19999 134.10002 353.4 135.00002 342.6H135ZM126 350.9C120.9 366.4 111.9 383.1 93.7 399.6 88.7 405.6 95.799999 407.6 98.2 404 110.7 388.8 120.1 371.2 126 350.9ZM67.3 304.6C64.5 317.6 66.3 328.2 76.8 335.4 88.4 345.5 114 342.6 120 334.8 115.4 339.19999 92 343.4 80.5 331.5 71.9 325.1 69.2 314.9 67.3 304.6ZM154.8 317.1C148.7 322.7 146 329.2 158.2 339.5 159.7 341.2 157.9 344.2 156.09999 340.7 155.49999 339.90003 154.29999 340.7 154.7 341.5 155.8 344.1 158.2 344.7 159.7 343.2 161.7 340 160 336.30003 156.3 332.5 152.6 327.5 152.7 322.3 154.8 317.1ZM124.100009 332.1C118.600009 333.30003 113.50001 332.6 109.100009 328 105.90001 323.8 102.600009 321.5 99.100009 323 97.40001 324.2 97.600009 326.7 100.00001 328.2 100.80001 328.7 101.700008 327.6 101.100009 326.90003 98.00001 324.60005 101.200008 323.30003 102.600009 325.10005 110.700008 338.80006 117.600009 337.20005 124.100009 332.10005V332.1ZM128.20001 372.9C131.30002 371.3 130.1 363.69999 130.20001 359.3 129.90001 352.69999 130.50002 345.8 132.50002 339 130.00002 344 128.10002 350.2 127.20001 359.6 127.10001 364.5 127.80001 369 128.20001 372.9ZM88.40001 359.1C94.600009 358.4 100.50001 356.6 105.80001 353.6 111.70001 350.5 115.60001 345.9 118.90001 340.80003 110.100009 348.40003 100.00001 354.6 88.40001 359.1ZM67.30001 365.7C76.10001 368.40003 84.30001 367.2 87.100009 359.6 80.40001 354.4 70.8 360.1 67.3 365.7H67.30001ZM125.30001 389.90003C130.50002 384.60005 132.20001 378.00004 127.60001 373.50004 121.70001 376.30003 122.500019 385.70005 125.30001 389.90003ZM200.40001 286.60005C201.40001 286.60005 202.20001 285.80006 202.20001 284.80006 202.20001 283.80006 201.40001 283.00007 200.40001 283.00007 199.40001 283.00007 198.6 283.80006 198.6 284.80006 198.6 285.80006 199.40001 286.60005 200.40001 286.60005ZM193.70001 286.90003C194.80002 286.90003 195.70001 286.00004 195.70001 284.90003 195.70001 283.80003 194.80002 282.90003 193.70001 282.90003 192.6 282.90003 191.70001 283.80003 191.70001 284.90003 191.70001 286.00004 192.6 286.90003 193.70001 286.90003ZM186.80002 287.7C188.10002 287.7 189.20001 286.6 189.20001 285.30003 189.20001 284.00004 188.1 282.90003 186.80002 282.90003 185.50003 282.90003 184.40003 284.00004 184.40003 285.30003 184.40003 286.7 185.50003 287.7 186.80002 287.7ZM179.90003 288.80003C181.30002 288.80003 182.50003 287.6 182.50003 286.2 182.50003 284.80003 181.30004 283.6 179.90003 283.6 178.50002 283.6 177.30002 284.80003 177.30002 286.2 177.40003 287.6 178.50002 288.80003 179.90003 288.80003ZM173.30002 290.40003C174.80002 290.40003 176.00002 289.2 176.00002 287.7 176.00002 286.2 174.80002 285 173.30002 285 171.80002 285 170.60002 286.2 170.60002 287.7 170.60002 289.2 171.80002 290.40003 173.30002 290.40003ZM155.90003 297.2C157.30002 297.2 158.50003 296 158.50003 294.6 158.50003 293.2 157.30004 292 155.90003 292 154.50002 292 153.30002 293.2 153.30002 294.6 153.30002 296 154.50002 297.2 155.90003 297.2ZM150.80002 299.6C152.10002 299.6 153.10002 298.6 153.10002 297.30003 153.10002 296.00004 152.10002 295.00004 150.80002 295.00004 149.50002 295.00004 148.50002 296.00004 148.50002 297.30003 148.50002 298.50004 149.60002 299.6 150.80002 299.6ZM146.00002 302.30003C147.20001 302.30003 148.10002 301.40003 148.10002 300.2 148.10002 299 147.20003 298.1 146.00002 298.1 144.8 298.1 143.90001 299 143.90001 300.2 143.90001 301.40003 144.8 302.30003 146.00002 302.30003ZM312 147.80002C310.9 147.80002 310 148.70001 310 149.80002 310 150.90003 310.9 151.80002 312 151.80002 313.1 151.80002 314 150.90003 314 149.80002 314 148.70001 313.1 147.80002 312 147.80002ZM410.8 49.60002C386 47.40002 368.9 57.800024 352.19999 79.400028L320.9 122.00002C312 133.10002 301.4 143.90003 287.9 151.30002 299.19999 143.40003 313 134.40003 317.19999 113.20002 319.59999 94.30002 310.99998 76.500019 298.69999 71.30002 289.99998 66.90002 275.4 68.500019 265.8 75.60002 282.69999 66.20002 301.09999 73.20002 307.09999 82.70002 316.8 97.70002 315.59999 117.400028 308.39997 127.400028 307.69996 128.50003 306.89997 129.50003 306.09999 130.60002 318.09999 105.00002 305.59999 76.10002 274.49998 77.50002 274.59999 79.20002 276.59999 82.10002 279.19999 83.400028 283.99998 86.300029 288.99998 88.800029 293.59999 92.20003 300.49998 97.00003 305.59999 103.00003 307.19999 111.400028 307.99998 118.00002 306.59999 125.300029 303.9 133.20003 301.6 136.00003 299.1 138.60002 296.4 141.00003 298.6 137.90003 299.9 131.90003 299.5 128.50003 297.5 119.70003 293.7 118.20003 290.5 117.20003 286.4 116.00003 283.1 116.900028 280.5 119.60003 277.7 122.70003 277.9 127.10003 280.4 129.30004 283.9 131.80004 287.3 132.10004 290.3 129.40004 285.19999 130.40004 281.3 129.80004 280.19999 125.20004 280.09999 122.000049 281.99998 119.90004 284.99998 118.600048 290.29997 118.000049 293.69999 120.000049 295.99998 123.30004 298.89997 127.50004 298.09999 133.40004 296.19999 137.10004 294.59999 140.40004 292.19999 143.00003 289.8 145.00003 268.09999 157.90003 253.09999 163.60004 226.79999 165.70003 200.49999 163.60002 185.49999 157.90003 163.79999 145.00003 161.29999 143.00003 158.9 140.40003 157.4 137.10004 155.5 133.40004 154.79999 127.50004 157.59999 123.30003 159.9 120.00003 163.29999 118.00003 168.59999 118.60004 171.59999 119.90004 173.49999 122.00004 173.4 125.200038 172.29999 129.70005 168.4 130.40004 163.29999 129.40004 166.4 132.10004 169.69998 131.80004 173.19998 129.30004 175.59998 127.200038 175.89998 122.80003 173.09998 119.60004 170.49997 116.90004 167.19998 116.00004 163.09998 117.200038 159.89998 118.10004 156.09998 119.700038 154.09998 128.50003 153.59998 131.90003 154.99997 137.90003 157.19998 141.00003 154.49999 138.50003 151.99999 135.90003 149.69998 133.20003 146.99999 125.300029 145.59998 118.00003 146.39998 111.400028 148.09998 103.00002 153.19998 97.00002 159.99999 92.20003 164.69998 88.800029 169.59999 86.300029 174.39998 83.400028 176.99999 82.00002 178.99999 79.20003 179.09998 77.50002 147.99997 76.10002 135.49997 105.00002 147.49997 130.60002 146.69997 129.60002 145.89997 128.50002 145.19997 127.400028 137.99997 117.400028 136.79998 97.70003 146.49997 82.70003 152.39997 73.300029 170.89997 66.300029 187.79998 75.60003 178.19997 68.50003 163.59998 66.90003 154.89997 71.300029 142.49997 76.50002 133.99997 94.300029 136.39997 113.20003 140.49997 134.30004 154.39997 143.40003 165.69997 151.30002 152.19997 143.90003 141.59996 133.10002 132.69997 122.000019L101.299968 79.40002C84.69997 57.80002 67.49997 47.400018 42.699968 49.600019 54.499967 50.200017 65.39996 53.600019 75.09997 60.80002 86.299968 68.80002 96.09997 78.90002 104.99997 90.60002 114.09997 101.400028 120.49997 113.30002 129.39997 123.400028 125.99996 121.70003 119.799968 121.20003 116.39996 122.20003 107.89996 125.50003 106.89996 129.50003 106.39996 132.90003 105.799968 137.10002 107.19997 140.30002 110.299968 142.50003 113.89996 144.90003 118.19997 144.00003 119.99996 141.20003 121.99996 137.30004 121.799968 133.90003 118.69996 131.30004 120.49996 136.20003 120.399959 140.30004 115.99996 142.00003 112.799968 142.50003 110.49996 141.00003 108.69996 138.10004 107.29996 132.80004 108.79996 129.20005 111.79996 126.40004 115.499958 122.90004 121.59996 122.80004 125.59996 124.10004 129.09996 125.200038 132.09996 127.200038 134.39997 129.40004 151.99997 151.70005 177.19997 162.10004 191.79996 164.80005 172.89997 162.20005 154.49996 155.70005 136.79996 141.30005 142.59996 148.40006 151.19995 154.30005 161.79996 158.70005 161.59996 158.70005 161.39997 158.60004 161.29996 158.60004 159.79996 158.60004 158.59996 159.80004 158.59996 161.30004 158.59996 162.80004 159.79996 164.00003 161.29996 164.00003 162.79996 164.00003 163.99996 162.80004 163.99996 161.30004 163.99996 160.30004 163.49996 159.50003 162.79996 159.00003 164.19995 159.60004 165.59996 160.10004 167.09996 160.60004H166.69997C165.09996 160.60004 163.79998 161.90004 163.79998 163.50003 163.79998 165.10002 165.09998 166.40003 166.69997 166.40003 168.29996 166.40003 169.59996 165.10002 169.59996 163.50003 169.59996 162.40003 168.99996 161.50003 168.09996 161.00003 184.39997 166.50003 204.69995 168.60004 227.09996 166.30004 249.49996 168.60004 269.79997 166.50003 286.09999 161.00003 285.19999 161.50003 284.59999 162.40003 284.59999 163.50003 284.59999 165.10004 285.89997 166.40003 287.49998 166.40003 289.09999 166.40003 290.39997 165.10002 290.39997 163.50003 290.39997 161.90004 289.09999 160.60004 287.49998 160.60004H287.09999C288.59999 160.10004 289.99998 159.60004 291.39997 159.00003 290.69996 159.50003 290.19996 160.30004 290.19996 161.30004 290.19996 162.80004 291.39997 164.00003 292.89997 164.00003 294.39997 164.00003 295.59999 162.80004 295.59999 161.30004 295.59999 159.80004 294.39997 158.60004 292.89997 158.60004 292.69996 158.60004 292.49998 158.60004 292.39997 158.70005 302.99998 154.30005 311.49998 148.40004 317.39997 141.30005 299.69996 155.70005 281.19996 162.20005 262.39997 164.80005 276.89997 162.10005 302.19996 151.70005 319.79997 129.40006 322.09996 127.20006 325.09996 125.20006 328.59996 124.10005 332.59996 122.70005 338.59996 122.900058 342.39994 126.400058 345.39994 129.20006 346.89994 132.80005 345.49995 138.10005 343.69996 140.90006 341.39994 142.50005 338.19996 142.00005 333.79997 140.20005 333.79997 136.20005 335.49995 131.30005 332.29994 134.00005 332.19996 137.30005 334.19996 141.20005 335.99995 143.90004 340.29997 144.80005 343.89997 142.50005 346.99998 140.30005 348.29997 137.10005 347.79997 132.90004 347.29997 129.60004 346.39997 125.50004 337.79997 122.20004 334.39997 121.20004 328.29997 121.70004 324.79997 123.40004 333.69996 113.30004 339.99998 101.40004 349.19996 90.60004 358.09996 79.00004 367.89997 68.80003 379.09996 60.800039 388.09996 53.600038 398.99995 50.200037 410.79997 49.600038L410.8 49.60002ZM318.5 110.900028C319.5 100.10002 318.4 90.300029 313.7 82.10002 309.1 75.20002 303.6 69.70002 296 65.00002 292.8 63.300024 296.1 61.400026 298.6 62.300024 307.30003 66.70002 311.7 73.60002 315.4 81.00002 320.69999 90.900028 320.3 104.70003 318.5 110.900028ZM327.5 102.60002C333.5 82.30002 342.8 64.70002 355.3 49.500024 357.69999 45.900026 364.8 47.800024 359.8 53.900026 341.69999 70.50002 332.59999 87.10002 327.5 102.60002ZM386.3 148.90003C384.3 138.60002 381.69999 128.40003 373.09999 122.10002 361.59999 110.10002 338.19999 114.400028 333.59999 118.80002 339.59999 110.90002 365.19999 108.10002 376.8 118.20002 387.3 125.40002 389.09999 135.90003 386.3 148.90003ZM298.8 136.50003C300.9 131.30004 301 126.10003 297.19999 121.00003 293.59999 117.20003 291.8 113.50003 293.8 110.30003 295.3 108.80003 297.69999 109.40003 298.8 112.00003 299.09999 112.90003 297.9 113.60003 297.4 112.80003 295.6 109.30003 293.8 112.30003 295.3 114.00003 307.59999 124.40003 304.9 130.90003 298.8 136.50003ZM329.5 121.40003C336 116.30003 342.8 114.700038 351.1 128.40003 352.5 130.20003 355.80003 128.90003 352.6 126.60002 351.9 125.900028 352.9 124.900028 353.7 125.30002 356.1 126.80002 356.30003 129.30002 354.6 130.50002 351.1 132.00002 347.80003 129.70001 344.6 125.500019 340.1 121.000019 335 120.20001 329.5 121.40002V121.40003ZM325.3 80.60004C325.69999 84.50004 326.4 89.00004 326.3 94.00004 325.4 103.30004 323.5 109.60004 321 114.60004 322.9 107.80003 323.5 100.80003 323.3 94.30003 323.4 89.80003 322.19999 82.200038 325.3 80.60004ZM365.09999 94.50004C353.49998 99.00004 343.39997 105.10004 334.59999 112.90004 337.89997 107.80004 341.8 103.20004 347.69999 100.10004 353.09999 96.90004 358.9 95.10004 365.09999 94.50004ZM386.19999 87.90004C382.8 93.40004 373.09999 99.20004 366.4 94.00004 369.19999 86.40004 377.4 85.200038 386.19999 87.90004ZM328.19999 63.60004C330.99998 67.80004 331.8 77.20004 325.9 80.00004 321.4 75.50004 323.1 69.00004 328.19999 63.600038V63.60004ZM253.09998 166.90004C254.09998 166.90004 254.89998 167.70005 254.89998 168.70005 254.89998 169.70005 254.09998 170.50005 253.09998 170.50005 252.09998 170.50005 251.29998 169.70005 251.29998 168.70005 251.29998 167.70005 252.09998 166.90004 253.09998 166.90004ZM259.8 166.60004C260.9 166.60004 261.8 167.50003 261.8 168.60004 261.8 169.70005 260.9 170.60004 259.8 170.60004 258.69999 170.60004 257.8 169.70005 257.8 168.60004 257.8 167.50003 258.69999 166.60004 259.8 166.60004ZM266.8 165.80004C268.09999 165.80004 269.19999 166.90004 269.19999 168.20003 269.19999 169.50002 268.09999 170.60002 266.8 170.60002 265.5 170.60002 264.4 169.50002 264.4 168.20003 264.4 166.90004 265.4 165.80004 266.8 165.80004ZM273.59999 164.70003C274.99998 164.70003 276.19999 165.90003 276.19999 167.30004 276.19999 168.70005 274.99998 169.90004 273.59999 169.90004 272.19999 169.90004 270.99998 168.70005 270.99998 167.30004 270.99998 165.90003 272.19999 164.70003 273.59999 164.70003ZM280.3 163.10002C281.8 163.10002 283 164.30002 283 165.80002 283 167.30002 281.8 168.50002 280.3 168.50002 278.8 168.50002 277.59999 167.30002 277.59999 165.80002 277.59999 164.40003 278.8 163.10002 280.3 163.10002ZM297.59999 156.40003C298.99998 156.40003 300.19999 157.60002 300.19999 159.00003 300.19999 160.40004 298.99998 161.60004 297.59999 161.60004 296.19999 161.60004 294.99998 160.40004 294.99998 159.00003 295.09999 157.50003 296.19999 156.40003 297.59999 156.40003ZM302.69999 154.00003C303.99998 154.00003 304.99998 155.00003 304.99998 156.30004 304.99998 157.60004 303.99998 158.60004 302.69999 158.60004 301.4 158.60004 300.4 157.60004 300.4 156.30004 300.4 155.00003 301.4 154.00003 302.69999 154.00003ZM307.49998 151.20003C308.69999 151.20003 309.59999 152.10002 309.59999 153.30004 309.59999 154.50005 308.69999 155.40004 307.49998 155.40004 306.29997 155.40004 305.39997 154.50005 305.39997 153.30004 305.39997 152.20003 306.39997 151.20003 307.49998 151.20003ZM134.99997 110.900028C133.19997 104.70003 132.79998 90.900028 138.09998 81.00002 141.69998 73.60002 146.19998 66.70002 154.89998 62.300024 157.49999 61.40002 160.69998 63.300024 157.49999 65.00002 149.89998 69.70002 144.39998 75.300029 139.79999 82.10002 135.09999 90.30002 133.99999 100.10002 134.99999 110.900028H134.99997ZM125.99997 102.60002C120.89997 87.10002 111.89997 70.400028 93.69997 53.90002 88.69997 47.90002 95.799968 45.90002 98.19997 49.50002 110.69997 64.70002 119.99997 82.30002 125.99997 102.60002ZM67.19997 148.90003C64.39996 135.90003 66.19997 125.300029 76.69997 118.10002 88.299968 108.00002 113.89996 110.900028 119.89996 118.70002 115.299968 114.30002 91.89996 110.10002 80.39996 122.00002 71.799968 128.40003 69.09996 138.60002 67.19997 148.90003ZM154.69997 136.50003C148.59996 130.90003 145.89997 124.40003 158.09996 114.10003 159.59996 112.40003 157.79996 109.40003 155.99996 112.90003 155.39995 113.700038 154.19995 112.90003 154.59996 112.10003 155.69997 109.50003 158.09996 108.90003 159.59996 110.40003 161.59996 113.60003 159.89997 117.30003 156.19997 121.10003 152.49997 126.10003 152.59996 131.20003 154.69997 136.50003ZM123.99997 121.40003C118.49997 120.200038 113.39997 120.90003 108.99997 125.50003 105.79997 129.70003 102.49997 132.00003 98.99997 130.50003 97.29997 129.30004 97.49997 126.80003 99.89997 125.30003 100.699977 124.80003 101.59997 125.90003 100.99997 126.60004 97.89997 128.90004 101.09997 130.20005 102.49997 128.40004 110.69997 114.70004 117.49997 116.30004 123.99997 121.40004V121.40003ZM128.19997 80.60004C131.29998 82.200038 130.09996 89.80003 130.19997 94.200038 129.89997 100.80003 130.49997 107.700038 132.49997 114.50003 129.99997 109.50003 128.09998 103.30003 127.19997 93.90003 127.09997 89.00003 127.799968 84.60003 128.19997 80.60003V80.60004ZM88.39996 94.50004C94.59996 95.200038 100.49996 97.00004 105.799968 100.00004 111.69997 103.10004 115.59997 107.700038 118.89996 112.80004 109.99996 105.100048 99.89996 98.90004 88.39996 94.500049V94.50004ZM67.299968 87.90004C76.09997 85.20004 84.299968 86.40004 87.09996 94.00004 80.39996 99.200038 70.69996 93.40004 67.29996 87.90004H67.299968ZM125.299968 63.60004C130.49997 68.90004 132.19997 75.50004 127.59997 80.00004 121.59997 77.200038 122.39997 67.90004 125.299968 63.600038V63.60004ZM200.29996 166.90004C201.29996 166.90004 202.09996 167.70005 202.09996 168.70005 202.09996 169.70005 201.29996 170.50005 200.29996 170.50005 199.29996 170.50005 198.49996 169.70005 198.49996 168.70005 198.59996 167.70005 199.39995 166.90004 200.29996 166.90004ZM193.69995 166.60004C194.79996 166.60004 195.69995 167.50003 195.69995 168.60004 195.69995 169.70005 194.79996 170.60004 193.69995 170.60004 192.59995 170.60004 191.69995 169.70005 191.69995 168.60004 191.69995 167.50003 192.59995 166.60004 193.69995 166.60004ZM186.69995 165.80004C187.99996 165.80004 189.09995 166.90004 189.09995 168.20003 189.09995 169.50002 187.99994 170.60002 186.69995 170.60002 185.39997 170.60002 184.29996 169.50002 184.29996 168.20003 184.29996 166.90004 185.39997 165.80004 186.69995 165.80004ZM179.89995 164.70003C181.29994 164.70003 182.49996 165.90003 182.49996 167.30004 182.49996 168.70005 181.29996 169.90004 179.89995 169.90004 178.49994 169.90004 177.29994 168.70005 177.29994 167.30004 177.29994 165.90003 178.39995 164.70003 179.89995 164.70003ZM173.19995 163.10002C174.69995 163.10002 175.89995 164.30002 175.89995 165.80002 175.89995 167.30002 174.69995 168.50002 173.19995 168.50002 171.69995 168.50002 170.49996 167.30002 170.49996 165.80002 170.49996 164.40003 171.69995 163.10002 173.19995 163.10002ZM155.79996 156.40003C157.19995 156.40003 158.39997 157.60002 158.39997 159.00003 158.39997 160.40004 157.19997 161.60004 155.79996 161.60004 154.39995 161.60004 153.19995 160.40004 153.19995 159.00003 153.29996 157.50003 154.39995 156.40003 155.79996 156.40003ZM150.79996 154.00003C152.09996 154.00003 153.09996 155.00003 153.09996 156.30004 153.09996 157.60004 152.09996 158.60004 150.79996 158.60004 149.49996 158.60004 148.49996 157.60004 148.49996 156.30004 148.49996 155.00003 149.49996 154.00003 150.79996 154.00003ZM145.89997 151.20003C147.09996 151.20003 147.99997 152.10002 147.99997 153.30004 147.99997 154.50005 147.09998 155.40004 145.89997 155.40004 144.69995 155.40004 143.79996 154.50005 143.79996 153.30004 143.79996 152.20003 144.79996 151.20003 145.89997 151.20003Z" fill="#d49b35" fill-rule="evenodd"/>
</g>
<g clip-path="url(#clip_3)">
<path transform="matrix(.75,0,0,.75,68.22206,266.12403)" stroke-width=".70000126" stroke-linecap="butt" stroke-miterlimit="4" stroke-linejoin="miter" fill="none" stroke="#d49b35" d="M111.93596 16.246069C110.71504 17.515582 109.1403 18.150338 107.21173 18.150338 105.96955 18.150338 104.88075 17.861813 103.94532 17.284762 103.012928 16.704674 102.29161 15.901358 101.78138 14.874815 101.274188 13.848271 101.020587 12.688096 101.020587 11.394287 101.020587 10.076181 101.290889 8.906895 101.8315 7.886426 102.3721 6.865957 103.12986 6.0732715 104.10477 5.5083696 105.08272 4.9404299 106.20645 4.65646 107.47596 4.65646 108.74547 4.65646 110.15013 4.9677636 111.68995 5.590371V8.537886H111.2435C110.99445 8.537886 110.85779 8.389068 110.83349 8.091431L110.74237 6.114272C109.60953 5.6921145 108.52072 5.481035 107.47596 5.481035 106.36742 5.481035 105.398578 5.733115 104.56945 6.237275 103.743358 6.7383987 103.110118 7.436934 102.66974 8.332881 102.229358 9.228828 102.00916 10.249297 102.00916 11.394287 102.00916 12.563575 102.22632 13.596191 102.66062 14.492139 103.09493 15.388086 103.709949 16.085103 104.50567 16.583189 105.30443 17.081274 106.23227 17.330317 107.28918 17.330317 108.097049 17.330317 108.81532 17.214907 109.44401 16.984087 110.07269 16.753266 110.66644 16.382739 111.22527 15.872505 111.28905 15.811763 111.35131 15.781391 111.412059 15.781391 111.46065 15.781391 111.510768 15.805688 111.56239 15.854282L111.93596 16.246069ZM128.98876 17.289317C129.11328 17.301465 129.20287 17.333355 129.25754 17.384985 129.31525 17.433579 129.3441 17.514063 129.3441 17.626437V18H125.777019V17.626437C125.777019 17.514063 125.80435 17.433579 125.85902 17.384985 125.91672 17.333355 126.007839 17.301465 126.132358 17.289317L127.0116 17.271094 125.61301 13.672119H119.23052L117.83193 17.25287 118.76129 17.289317C118.88581 17.301465 118.97541 17.333355 119.030078 17.384985 119.087779 17.433579 119.11663 17.514063 119.11663 17.626437V18H115.5541V17.626437C115.5541 17.514063 115.581439 17.433579 115.63611 17.384985 115.69381 17.333355 115.78493 17.301465 115.90945 17.289317L116.80235 17.25287 121.918369 4.788574H122.92517L128.03662 17.25287 128.98876 17.289317ZM125.31233 12.961435 122.72016 6.5425055 122.41949 5.7042629 122.12337 6.5425055 119.52664 12.961435H125.31233ZM143.52268 7.5128614H143.07622C142.82718 7.5128614 142.6905 7.3640429 142.6662 7.0664064L142.58876 5.590371H138.74378V17.25287L139.96015 17.289317C140.20919 17.31665 140.3337 17.429024 140.3337 17.626437V18H136.22449V17.626437C136.22449 17.429024 136.34902 17.31665 136.59806 17.289317L137.7962 17.25287V5.590371H133.933L133.85555 7.0664064C133.8434 7.3640429 133.7128 7.5128614 133.46376 7.5128614H132.99909V4.788574H143.52268V7.5128614ZM157.35007 7.5128614H156.88085C156.64395 7.5128614 156.51335 7.3640429 156.48906 7.0664064L156.41617 5.5721485H150.38903V10.929609H155.65082V11.694962H150.38903V17.198204H156.41617L156.48906 15.722168C156.51335 15.412383 156.64395 15.25749 156.88085 15.25749H157.35007V18H147.86974V17.626437C147.86974 17.413838 147.98819 17.301465 148.22509 17.289317L149.43689 17.25287V5.517481L148.22509 5.481035C147.97605 5.453701 147.85152 5.341328 147.85152 5.143916V4.788574H157.35007V7.5128614ZM172.96739 17.289317C173.20125 17.301465 173.31818 17.413838 173.31818 17.626437V18H172.01526C171.90288 18 171.81177 17.97874 171.74192 17.93622 171.6751 17.890664 171.6098 17.83144 171.54602 17.75855L167.31381 12.401089C167.1741 12.240123 167.04807 12.138379 166.93569 12.09586 166.82636 12.050303 166.65323 12.027525 166.41634 12.027525H164.8492V17.25287L166.04277 17.289317C166.29181 17.31665 166.41634 17.429024 166.41634 17.626437V18H162.31169V17.626437C162.31169 17.429024 162.43622 17.31665 162.68526 17.289317L163.89707 17.25287V5.517481L162.68526 5.481035C162.44837 5.4658496 162.32991 5.3534767 162.32991 5.143916V4.788574H167.10425C168.53777 4.788574 169.65238 5.0664699 170.4481 5.622261 171.24384 6.1750147 171.6417 7.0542576 171.6417 8.259991 171.6417 9.280459 171.29242 10.120219 170.59389 10.779272 169.89839 11.438325 168.9979 11.817964 167.89238 11.918188 168.05335 12.015376 168.19 12.139897 168.30239 12.291753L172.2567 17.271094 172.96739 17.289317ZM166.97669 11.321396C168.10953 11.321396 169.01459 11.0602049 169.69187 10.537823 170.36914 10.015439 170.70778 9.280458 170.70778 8.332881 170.70778 6.468096 169.5066 5.5357038 167.10425 5.5357038H164.8492V11.321396H166.97669ZM187.2779 7.5128614H186.80867C186.57178 7.5128614 186.44118 7.3640429 186.41689 7.0664064L186.344 5.5721485H180.31685V10.929609H185.57865V11.694962H180.31685V17.198204H186.344L186.41689 15.722168C186.44118 15.412383 186.57178 15.25749 186.80867 15.25749H187.2779V18H177.79756V17.626437C177.79756 17.413838 177.91602 17.301465 178.15291 17.289317L179.36472 17.25287V5.517481L178.15291 5.481035C177.90387 5.453701 177.77935 5.341328 177.77935 5.143916V4.788574H187.2779V7.5128614ZM202.89522 17.289317C203.12908 17.301465 203.246 17.413838 203.246 17.626437V18H201.94309C201.8307 18 201.7396 17.97874 201.66974 17.93622 201.60292 17.890664 201.53763 17.83144 201.47385 17.75855L197.24164 12.401089C197.10193 12.240123 196.97589 12.138379 196.86351 12.09586 196.75418 12.050303 196.58106 12.027525 196.34416 12.027525H194.77703V17.25287L195.9706 17.289317C196.21964 17.31665 196.34416 17.429024 196.34416 17.626437V18H192.23952V17.626437C192.23952 17.429024 192.36405 17.31665 192.61309 17.289317L193.82489 17.25287V5.517481L192.61309 5.481035C192.37619 5.4658496 192.25774 5.3534767 192.25774 5.143916V4.788574H197.03208C198.46559 4.788574 199.5802 5.0664699 200.37593 5.622261 201.17166 6.1750147 201.56952 7.0542576 201.56952 8.259991 201.56952 9.280459 201.22025 10.120219 200.52172 10.779272 199.82622 11.438325 198.92572 11.817964 197.8202 11.918188 197.98117 12.015376 198.11783 12.139897 198.23021 12.291753L202.18453 17.271094 202.89522 17.289317ZM196.90451 11.321396C198.03736 11.321396 198.94242 11.0602049 199.61969 10.537823 200.29697 10.015439 200.6356 9.280458 200.6356 8.332881 200.6356 6.468096 199.43444 5.5357038 197.03208 5.5357038H194.77703V11.321396H196.90451ZM212.29473 10.797495C213.42757 11.158911 214.26428 11.579551 214.80489 12.059414 215.34854 12.536241 215.62036 13.228702 215.62036 14.136797 215.62036 14.944668 215.43662 15.653832 215.06912 16.264292 214.70163 16.874752 214.19443 17.342467 213.54753 17.667437 212.90062 17.98937 212.1793 18.150338 211.38359 18.150338 210.16268 18.150338 208.97972 17.907368 207.83472 17.42143V14.473916H208.28574C208.54692 14.473916 208.6836 14.622734 208.69574 14.920371L208.78687 16.824639C209.2485 17.02205 209.6661 17.15872 210.03968 17.234648 210.41323 17.310576 210.87335 17.34854 211.42003 17.34854 212.42835 17.34854 213.23015 17.072163 213.82543 16.51941 214.42374 15.963618 214.72289 15.219526 214.72289 14.287134 214.72289 13.728306 214.59532 13.283369 214.34021 12.952324 214.0851 12.62128 213.7419 12.357051 213.31064 12.159639 212.8824 11.959189 212.2522 11.72837 211.42003 11.467178 210.2629 11.108799 209.42009 10.683603 208.89163 10.191591 208.36318 9.69958 208.09896 8.987378 208.09896 8.054985 208.09896 7.383784 208.26599 6.790029 208.60009 6.2737209 208.9372 5.7574126 209.39429 5.359551 209.97133 5.0801374 210.55142 4.7976858 211.20136 4.65646 211.92116 4.65646 212.99326 4.65646 214.1261 4.911577 215.31969 5.421812V8.369327H214.87323C214.62419 8.369327 214.48752 8.220509 214.46321 7.9228718L214.36756 5.9092676C213.63257 5.596445 212.81711 5.440034 211.92116 5.440034 211.0647 5.440034 210.35857 5.6769287 209.80277 6.1507179 209.25002 6.624507 208.97364 7.24104 208.97364 8.000318 208.97364 8.507515 209.10727 8.929673 209.37454 9.266792 209.6418 9.603911 209.99866 9.881806 210.44512 10.100479 210.8946 10.316113 211.51114 10.548452 212.29473 10.797495Z"/>
<text fill-opacity="0" xml:space="preserve" transform="matrix(.75 0 0 .75 68.22206 266.12403)" font-size="18.66" font-family="Aleo"><tspan y="18" x="100.328128 115.19876 132.43874 146.91759 161.37778 176.84542 191.3056 206.77324">CATERERS</tspan></text>
<path transform="matrix(.75,0,0,.75,68.22206,266.12403)" stroke-width=".70000126" stroke-linecap="butt" stroke-miterlimit="4" stroke-linejoin="miter" fill="none" stroke="#d49b35" d=""/>
<text fill-opacity="0" xml:space="preserve" transform="matrix(.75 0 0 .75 68.22206 266.12403)" font-size="18.66" font-family="Aleo"><tspan y="18" x="219.21875"> </tspan></text>
<path transform="matrix(.75,0,0,.75,59.590608,242.39774)" stroke-width="1.0368638" stroke-linecap="butt" stroke-miterlimit="4" stroke-linejoin="miter" fill="none" stroke="#d49b35" d="M69.28091 26V25.642354C69.70378 25.511893 69.99395 25.235222 70.151409 24.812344 70.30886 24.389468 70.38759 23.61569 70.38759 22.491017V7.0919725H69.03123C67.798587 7.0919725 66.85836 7.285416 66.21055 7.672304 65.56723 8.059194 65.00714 8.751993 64.53028 9.750704L64.22662 9.689972 64.38857 6.653351H78.62695L78.78891 9.689972 78.485248 9.750704C78.026378 8.751993 77.47304 8.059194 76.825229 7.672304 76.18191 7.285416 75.23268 7.0919725 73.97755 7.0919725H72.68192V22.491017C72.68192 23.61569 72.76065 24.389468 72.918109 24.812344 73.07556 25.235222 73.36573 25.511893 73.788608 25.642354V26H69.28091ZM107.367229 26.195694C106.66543 26.195694 106.11209 26.024744 105.70721 25.682843 105.30232 25.34094 104.94693 24.843834 104.641017 24.191523 104.3396 23.534714 103.98646 22.727198 103.58157 21.768975 103.17219 20.810751 102.83029 19.973994 102.55587 19.258702 102.28145 18.53891 101.982288 17.940585 101.65838 17.463723 101.33447 16.98236 100.92284 16.622466 100.423488 16.384034 99.92863 16.141104 99.26732 16.019639 98.43956 16.019639H96.67157V22.491017C96.67157 23.61569 96.74805 24.389468 96.90101 24.812344 97.05846 25.235222 97.348628 25.511893 97.77151 25.642354V26H93.29755V25.642354C93.72042 25.511893 94.01059 25.235222 94.168048 24.812344 94.3255 24.389468 94.40423 23.61569 94.40423 22.491017V10.162334C94.40423 9.019665 94.3255 8.24139 94.168048 7.827511 94.01059 7.41363 93.72042 7.1414587 93.29755 7.010996V6.653351H98.743228C100.62368 6.653351 102.088008 6.842296 103.1362 7.220186 104.188899 7.5980765 104.931179 8.108679 105.36305 8.751993 105.79493 9.395307 106.01087 10.133093 106.01087 10.965352 106.01087 12.25198 105.54975 13.351912 104.62752 14.265147 103.705287 15.178383 102.34218 15.736221 100.5382 15.938663 101.38396 16.05113 102.07451 16.240077 102.609859 16.505497 103.1452 16.770922 103.58832 17.130818 103.93922 17.585186 104.290119 18.035056 104.602779 18.583897 104.8772 19.231709 105.15612 19.875023 105.45978 20.619559 105.788188 21.465313 106.23355 22.571993 106.60694 23.428994 106.908359 24.036318 107.21427 24.643643 107.49544 25.073267 107.75186 25.325196 108.00829 25.572625 108.29396 25.696339 108.60887 25.696339 108.70335 25.696339 108.78207 25.696339 108.84505 25.696339 108.90803 25.696339 108.97776 25.687342 109.05424 25.669346V26C108.8518 26.07198 108.58862 26.121466 108.26472 26.148457 107.94081 26.179949 107.64165 26.195694 107.367229 26.195694ZM96.67157 15.608008H98.9929C100.57644 15.608008 101.7506 15.234616 102.51538 14.487832 103.28016 13.741049 103.66255 12.778327 103.66255 11.5996689 103.66255 10.771908 103.4736 10.018376 103.09571 9.339073 102.71782 8.655271 102.108249 8.106429 101.26699 7.6925489 100.43024 7.2741706 99.3303 7.0649816 97.96719 7.0649816 97.764759 7.0649816 97.553318 7.0694806 97.33288 7.078478 97.11244 7.0874745 96.892009 7.10097 96.67157 7.118965V15.608008ZM122.84002 26V25.642354C123.26289 25.511893 123.55306 25.235222 123.71052 24.812344 123.86797 24.389468 123.9467 23.61569 123.9467 22.491017V10.162334C123.9467 9.019665 123.86797 8.24139 123.71052 7.827511 123.55306 7.41363 123.26289 7.1414587 122.84002 7.010996V6.653351H127.31398V7.010996C126.8911 7.1414587 126.60093 7.41363 126.44348 7.827511 126.29052 8.24139 126.21404 9.019665 126.21404 10.162334V22.491017C126.21404 23.61569 126.29052 24.389468 126.44348 24.812344 126.60093 25.235222 126.8911 25.511893 127.31398 25.642354V26H122.84002ZM142.74198 26V25.642354C143.16486 25.511893 143.45502 25.235222 143.61248 24.812344 143.76993 24.389468 143.84867 23.61569 143.84867 22.491017V11.269014C143.84867 10.216319 143.78343 9.399806 143.65297 8.819473 143.5225 8.2391409 143.33356 7.820762 143.08612 7.564337 142.8387 7.3079106 142.53054 7.123463 142.16165 7.010996V6.653351H145.50193L152.71559 18.563652 159.7943 6.653351H162.91864V7.010996C162.54975 7.123463 162.23934 7.3079106 161.98741 7.564337 161.73999 7.820762 161.55104 8.2391409 161.42057 8.819473 161.2946 9.399806 161.23163 10.216319 161.23163 11.269014V22.491017C161.23163 23.61569 161.31035 24.389468 161.4678 24.812344 161.62526 25.235222 161.91544 25.511893 162.3383 25.642354V26H157.8576V25.642354C158.28499 25.511893 158.57515 25.235222 158.7281 24.812344 158.88556 24.389468 158.96428 23.61569 158.96428 22.491017V8.893702L151.94632 20.75002H151.41997L144.34127 9.109638V21.384337C144.34127 22.432534 144.4155 23.242299 144.56395 23.813633 144.7124 24.384968 144.92385 24.805596 145.19828 25.075518 145.47719 25.34094 145.81908 25.529887 146.22397 25.642354V26H142.74198ZM186.93135 26.27667C185.93265 26.27667 184.96767 26.148457 184.03644 25.89203 183.10971 25.631108 182.27745 25.214978 181.53966 24.643643 180.80188 24.072308 180.2103 23.312027 179.76493 22.362803 179.32405 21.413578 179.10363 20.248415 179.10363 18.867316V10.162334C179.10363 9.019665 179.02489 8.24139 178.86743 7.827511 178.71448 7.41363 178.42656 7.1414587 178.00368 7.010996V6.653351H182.47765V7.010996C182.07276 7.1414587 181.7871 7.41363 181.62064 7.827511 181.45418 8.24139 181.37096 9.019665 181.37096 10.162334V18.70536C181.37096 20.419365 181.65663 21.78697 182.22797 22.808175 182.7993 23.829379 183.57308 24.567166 184.54929 25.021534 185.5255 25.471404 186.61418 25.696339 187.81534 25.696339 188.40468 25.696339 189.021 25.58612 189.6643 25.365685 190.31212 25.145247 190.91495 24.767357 191.47278 24.232012 192.03511 23.696667 192.49173 22.979125 192.84264 22.079384 193.19355 21.175147 193.36899 20.05047 193.36899 18.70536V11.269014C193.36899 10.216319 193.29476 9.399806 193.1463 8.819473 192.99785 8.2391409 192.7864 7.820762 192.51198 7.564337 192.23757 7.3079106 191.89566 7.123463 191.48628 7.010996V6.653351H194.91429V7.010996C194.5094 7.1414587 194.22374 7.41363 194.05728 7.827511 193.89534 8.24139 193.81436 9.019665 193.81436 10.162334V18.617638C193.81436 20.462103 193.50395 21.946675 192.88314 23.071349 192.26682 24.196022 191.4413 25.012537 190.4066 25.52089 189.3764 26.024744 188.21799 26.27667 186.93135 26.27667ZM223.82436 26.195694C223.12256 26.195694 222.56922 26.024744 222.16434 25.682843 221.75945 25.34094 221.40406 24.843834 221.09815 24.191523 220.79674 23.534714 220.44359 22.727198 220.0387 21.768975 219.62932 20.810751 219.28742 19.973994 219.01299 19.258702 218.73857 18.53891 218.4394 17.940585 218.11551 17.463723 217.7916 16.98236 217.37996 16.622466 216.88062 16.384034 216.38576 16.141104 215.72444 16.019639 214.89669 16.019639H213.1287V22.491017C213.1287 23.61569 213.20517 24.389468 213.35813 24.812344 213.51558 25.235222 213.80576 25.511893 214.22863 25.642354V26H209.75467V25.642354C210.17755 25.511893 210.46772 25.235222 210.62517 24.812344 210.78263 24.389468 210.86136 23.61569 210.86136 22.491017V10.162334C210.86136 9.019665 210.78263 8.24139 210.62517 7.827511 210.46772 7.41363 210.17755 7.1414587 209.75467 7.010996V6.653351H215.20035C217.0808 6.653351 218.54512 6.842296 219.59333 7.220186 220.64601 7.5980765 221.3883 8.108679 221.82018 8.751993 222.25205 9.395307 222.46799 10.133093 222.46799 10.965352 222.46799 12.25198 222.00687 13.351912 221.08464 14.265147 220.16242 15.178383 218.7993 15.736221 216.99533 15.938663 217.84108 16.05113 218.53163 16.240077 219.06697 16.505497 219.60233 16.770922 220.04544 17.130818 220.39635 17.585186 220.74724 18.035056 221.05989 18.583897 221.33432 19.231709 221.61324 19.875023 221.9169 20.619559 222.2453 21.465313 222.69068 22.571993 223.06407 23.428994 223.36548 24.036318 223.6714 24.643643 223.95256 25.073267 224.20899 25.325196 224.46541 25.572625 224.75109 25.696339 225.066 25.696339 225.16046 25.696339 225.2392 25.696339 225.30217 25.696339 225.36515 25.696339 225.43488 25.687342 225.51136 25.669346V26C225.30892 26.07198 225.04575 26.121466 224.72183 26.148457 224.39794 26.179949 224.09877 26.195694 223.82436 26.195694ZM213.1287 15.608008H215.45003C217.03357 15.608008 218.20772 15.234616 218.9725 14.487832 219.73729 13.741049 220.11968 12.778327 220.11968 11.5996689 220.11968 10.771908 219.93073 10.018376 219.55284 9.339073 219.17494 8.655271 218.56537 8.106429 217.72412 7.6925489 216.88736 7.2741706 215.78743 7.0649816 214.42432 7.0649816 214.22188 7.0649816 214.01044 7.0694806 213.79001 7.078478 213.56957 7.0874745 213.34914 7.10097 213.1287 7.118965V15.608008ZM243.38646 26V25.642354C243.80933 25.511893 244.0995 25.235222 244.25696 24.812344 244.41442 24.389468 244.49314 23.61569 244.49314 22.491017V7.0919725H243.13678C241.90413 7.0919725 240.9639 7.285416 240.31609 7.672304 239.67278 8.059194 239.11269 8.751993 238.63584 9.750704L238.33217 9.689972 238.49413 6.653351H252.7325L252.89446 9.689972 252.59079 9.750704C252.13191 8.751993 251.57859 8.059194 250.93077 7.672304 250.28746 7.285416 249.33824 7.0919725 248.0831 7.0919725H246.78748V22.491017C246.78748 23.61569 246.8662 24.389468 247.02365 24.812344 247.1811 25.235222 247.47127 25.511893 247.89415 25.642354V26H243.38646ZM267.40309 26V25.642354C267.82597 25.511893 268.11613 25.235222 268.2736 24.812344 268.43104 24.389468 268.50978 23.61569 268.50978 22.491017V10.162334C268.50978 9.019665 268.43104 8.24139 268.2736 7.827511 268.11613 7.41363 267.82597 7.1414587 267.40309 7.010996V6.653351H271.87705V7.010996C271.45417 7.1414587 271.16398 7.41363 271.00654 7.827511 270.85359 8.24139 270.7771 9.019665 270.7771 10.162334V22.491017C270.7771 23.61569 270.85359 24.389468 271.00654 24.812344 271.16398 25.235222 271.45417 25.511893 271.87705 25.642354V26H267.40309Z"/>
<text fill-opacity="0" xml:space="preserve" transform="matrix(.75 0 0 .75 59.590608 242.39774)" font-size="27.64" font-family="TheSeasons"><tspan y="26" x="63.78125 91.88721 121.42967 141.35861 176.95098 208.34432 237.88678 265.99275">TRIMURTI</tspan></text>
<text fill="#d49b35" xml:space="preserve" transform="matrix(.75 0 0 .75 80.467067 132.8375)" font-size="62.68" font-family="PlayfairDisplaySC"><tspan y="69" x="123.234378">T</tspan></text>
</g>
</svg>
